<?xml version="1.0" encoding="utf-8"?>
<!-- Generator: Adobe Illustrator 16.0.0, SVG Export Plug-In . SVG Version: 6.00 Build 0)  -->
<!DOCTYPE svg PUBLIC "-//W3C//DTD SVG 1.1//EN" "http://www.w3.org/Graphics/SVG/1.1/DTD/svg11.dtd">
<svg version="1.1" id="Layer_1" xmlns="http://www.w3.org/2000/svg" xmlns:xlink="http://www.w3.org/1999/xlink" x="0px" y="0px"
	 width="8419.248px" height="2209.92px" viewBox="0 0 8419.248 2209.92" enable-background="new 0 0 8419.248 2209.92"
	 xml:space="preserve">
<g id="XMLID_268_">
	<path id="XMLID_283_" fill="#FFFFFF" d="M2621.025,784.175c0,87.981-65.974,131.951-197.925,131.951h-508.948V242.912h550.689
		c100.519,0,150.8,43.549,150.8,130.604v82.133c0,66.437-38.605,104.136-115.792,113.1c80.783,10.77,121.176,53.856,121.176,129.256
		V784.175z M2471.573,462.38v-74.053c0-23.331-24.235-35.007-72.708-35.007h-337.953v157.532h337.953
		C2447.338,510.852,2471.573,494.695,2471.573,462.38z M2475.612,747.823v-60.59c0-26.024-6.059-42.623-18.177-49.818
		c-12.117-7.173-31.64-10.771-58.57-10.771h-337.953v168.303h337.953c26.931,0,46.453-3.807,58.57-11.442
		C2469.554,775.888,2475.612,763.979,2475.612,747.823z"/>
	<path id="XMLID_281_" fill="#FFFFFF" d="M3657.765,916.125h-674.56V242.912h154.838v545.303h519.722V916.125z"/>
	<path id="XMLID_279_" fill="#FFFFFF" d="M4659.507,743.783c0,70.918-11.907,117.37-35.682,139.354
		c-23.792,22.006-72.032,32.988-144.742,32.988h-398.542c-72.705,0-120.967-10.981-144.739-32.988
		c-23.794-21.984-35.681-68.437-35.681-139.354V241.565h157.532v534.534h447.015V241.565h154.839V743.783z"/>
	<path id="XMLID_277_" fill="#FFFFFF" d="M5705.68,916.125h-700.141V356.012c0-75.4,38.582-113.1,115.791-113.1h577.617v114.445
		h-535.879v150.802h300.255v114.445h-300.255v166.958h542.611V916.125z"/>
	<path id="XMLID_273_" fill="#FFFFFF" d="M6728.953,784.175c0,87.981-65.976,131.951-197.926,131.951h-508.949V242.912h550.688
		c100.521,0,150.803,43.549,150.803,130.604v82.133c0,66.437-38.605,104.136-115.795,113.1
		c80.787,10.77,121.18,53.856,121.18,129.256V784.175z M6579.498,462.38v-74.053c0-23.331-24.236-35.007-72.707-35.007h-337.953
		v157.532h337.953C6555.262,510.852,6579.498,494.695,6579.498,462.38z M6583.538,747.823v-60.59
		c0-26.024-6.059-42.623-18.175-49.818c-12.119-7.173-31.644-10.771-58.572-10.771h-337.953v168.303h337.953
		c26.929,0,46.453-3.807,58.572-11.442C6577.479,775.888,6583.538,763.979,6583.538,747.823z"/>
	<path id="XMLID_271_" fill="#FFFFFF" d="M7245.969,916.125h-154.838V242.912h154.838V916.125z"/>
	<path id="XMLID_269_" fill="#FFFFFF" d="M8212.688,365.436h-296.215v550.689h-157.531V365.436h-294.868V245.604h748.614V365.436z"
		/>
</g>
<g id="XMLID_241_">
	<path id="XMLID_266_" fill="#FFFFFF" d="M2255.467,1268.381h-134.709v250.44h-71.642v-250.44h-134.099v-54.496h340.449V1268.381z"
		/>
	<path id="XMLID_264_" fill="#FFFFFF" d="M2751.447,1518.822h-318.406v-254.726c0-34.29,17.547-51.436,52.66-51.436h262.685v52.047
		h-243.703v68.58h136.548v52.048h-136.548v75.928h246.765V1518.822z"/>
	<path id="XMLID_262_" fill="#FFFFFF" d="M3292.121,1446.568c0,28.578-5.414,47.762-16.226,57.558
		c-10.821,9.796-30.722,14.696-59.7,14.696h-181.86c-28.991,0-48.891-4.9-59.701-14.696c-10.821-9.796-16.227-28.98-16.227-57.558
		v-161.04c0-28.168,5.405-47.246,16.227-57.252c10.811-9.999,30.71-15.002,59.701-15.002h181.86
		c48.983,0.41,74.29,17.355,75.926,50.822v44.7h-71.029v-41.026h-191.656v193.494h191.656v-44.7h71.029V1446.568z"/>
	<path id="XMLID_260_" fill="#FFFFFF" d="M3885.457,1518.822h-71.642v-125.525h-216.149v125.525h-71.029v-305.548h71.029v118.177
		h216.149v-118.177h71.642V1518.822z"/>
	<path id="XMLID_258_" fill="#FFFFFF" d="M4493.487,1518.822h-61.846l-233.294-214.312v214.312h-64.906V1212.66h60.621
		l235.742,213.7v-213.7h63.683V1518.822z"/>
	<path id="XMLID_255_" fill="#FFFFFF" d="M5105.188,1446.568c0,28.578-5.414,47.762-16.227,57.558
		c-10.82,9.796-30.723,14.696-59.701,14.696H4805.15c-28.99,0-48.891-4.9-59.699-14.696c-10.824-9.796-16.229-28.98-16.229-57.558
		V1286.14c0-28.569,5.404-47.762,16.229-57.558c10.809-9.797,30.709-14.697,59.699-14.697h224.109
		c28.979,0,48.881,4.9,59.701,14.697c10.813,9.795,16.227,28.988,16.227,57.558V1446.568z M5034.16,1460.651v-191.656h-233.908
		v191.656H5034.16z"/>
	<path id="XMLID_253_" fill="#FFFFFF" d="M5650.146,1518.822h-306.773V1212.66h70.418v247.991h236.355V1518.822z"/>
	<path id="XMLID_250_" fill="#FFFFFF" d="M6199.398,1446.568c0,28.578-5.416,47.762-16.228,57.558
		c-10.819,9.796-30.722,14.696-59.7,14.696h-224.109c-28.992,0-48.893-4.9-59.701-14.696c-10.823-9.796-16.227-28.98-16.227-57.558
		V1286.14c0-28.569,5.403-47.762,16.227-57.558c10.809-9.797,30.709-14.697,59.701-14.697h224.109c28.979,0,48.881,4.9,59.7,14.697
		c10.812,9.795,16.228,28.988,16.228,57.558V1446.568z M6128.369,1460.651v-191.656h-233.907v191.656H6128.369z"/>
	<path id="XMLID_248_" fill="#FFFFFF" d="M6792.73,1446.568c0,28.578-5.413,47.762-16.225,57.558
		c-10.822,9.796-30.721,14.696-59.701,14.696h-210.025c-28.992,0-48.895-4.9-59.701-14.696
		c-10.824-9.796-16.229-28.98-16.229-57.558V1286.14c0-28.569,5.404-47.762,16.229-57.558c10.807-9.797,30.709-14.697,59.701-14.697
		h210.025c30.203,0,50.41,5.206,60.617,15.614c10.201,10.41,15.309,30.521,15.309,60.314h-69.191v-21.432h-221.661v192.882h221.661
		v-67.966h-127.975v-52.047h197.166V1446.568z"/>
	<path id="XMLID_246_" fill="#FFFFFF" d="M7101.338,1518.822h-70.417V1212.66h70.417V1518.822z"/>
	<path id="XMLID_244_" fill="#FFFFFF" d="M7654.256,1518.822h-318.407v-254.726c0-34.29,17.548-51.436,52.661-51.436h262.686v52.047
		h-243.704v68.58h136.546v52.048h-136.546v75.928h246.765V1518.822z"/>
	<path id="XMLID_242_" fill="#FFFFFF" d="M8211.465,1446.568c0,28.578-5.723,47.762-17.145,57.558
		c-11.436,9.796-32.053,14.696-61.846,14.696h-189.818c-32.252,0-53.483-5.511-63.683-16.533
		c-10.21-11.023-15.308-34.491-15.308-70.417h71.027v28.78h211.863v-69.191h-197.777c-29.805,0-50.317-4.995-61.539-15.004
		c-11.232-9.997-16.838-29.286-16.838-57.865v-33.677c0-28.567,5.605-47.759,16.838-57.558
		c11.222-9.797,31.734-14.696,61.539-14.696h255.336v53.885h-269.422v65.52h197.781c29.793,0,50.41,4.897,61.846,14.696
		c11.422,9.797,17.145,28.988,17.145,57.556V1446.568z"/>
</g>
<g id="XMLID_202_">
	<path id="XMLID_239_" fill="#FFFFFF" stroke="#FFFFFF" stroke-width="20" stroke-miterlimit="10" d="M2000.724,1928.759
		l-62.295-97.812v-0.233h14.376l54.08,85.907l54.309-85.907h14.375v0.233l-62.522,97.812v65.368h-12.322V1928.759z"/>
	<path id="XMLID_236_" fill="#FFFFFF" stroke="#FFFFFF" stroke-width="20" stroke-miterlimit="10" d="M2421.712,1912.654
		c-0.229,42.953-26.926,84.272-80.551,84.272c-53.623,0-80.548-41.554-80.548-84.74c0-43.888,26.697-84.041,80.548-84.041
		C2395.014,1828.146,2421.938,1868.532,2421.712,1912.654z M2272.706,1912.42c0.228,36.884,23.046,72.836,68.455,72.836
		c45.638,0,68.685-35.952,68.685-72.836c0-37.818-22.816-72.601-68.685-72.601C2295.296,1839.819,2272.478,1873.9,2272.706,1912.42z
		"/>
	<path id="XMLID_234_" fill="#FFFFFF" stroke="#FFFFFF" stroke-width="20" stroke-miterlimit="10" d="M2742.751,1830.714v101.548
		c0,85.44-122.309,85.678-122.309,0v-101.548h12.095v101.548c0,70.268,98.119,70.037,98.119,0v-101.548H2742.751z"/>
	<path id="XMLID_232_" fill="#FFFFFF" stroke="#FFFFFF" stroke-width="20" stroke-miterlimit="10" d="M3178.332,1994.127v-163.413
		h12.096v163.413H3178.332z"/>
	<path id="XMLID_230_" fill="#FFFFFF" stroke="#FFFFFF" stroke-width="20" stroke-miterlimit="10" d="M3534.521,1848.923
		l-61.153,95.711h-4.107l-61.61-95.711v145.204h-12.322v-163.413c5.935,0,8.671,0,14.604,0l61.154,95.246l60.47-95.246h15.06
		v163.413h-12.094V1848.923z"/>
	<path id="XMLID_227_" fill="#FFFFFF" stroke="#FFFFFF" stroke-width="20" stroke-miterlimit="10" d="M3878.38,1994.127
		l-17.569-40.153h-95.383l-17.342,40.153h-13.234l71.651-163.413h13.461l71.651,163.413H3878.38z M3856.019,1942.301l-42.899-99.448
		l-42.897,99.448H3856.019z"/>
	<path id="XMLID_225_" fill="#FFFFFF" stroke="#FFFFFF" stroke-width="20" stroke-miterlimit="10" d="M4200.107,1860.829
		c-13.921-14.007-33.317-21.01-51.345-21.01c-46.775,0-70.735,35.017-70.509,72.835c0,38.518,23.962,71.666,70.509,71.666
		c17.115,0,34.915-6.067,48.604-18.908v-45.755h-55.675v-10.973h67.312v61.164c-16.654,17.04-36.508,26.381-60.241,26.381
		c-54.307,0-82.374-38.754-82.374-83.344c-0.227-51.123,33.771-84.507,82.374-84.507c20.994,0,42.215,8.171,58.417,24.513
		L4200.107,1860.829z"/>
	<path id="XMLID_223_" fill="#FFFFFF" stroke="#FFFFFF" stroke-width="20" stroke-miterlimit="10" d="M4412.076,1994.127v-163.413
		h12.093v163.413H4412.076z"/>
	<path id="XMLID_221_" fill="#FFFFFF" stroke="#FFFFFF" stroke-width="20" stroke-miterlimit="10" d="M4634.319,1830.714
		l107.475,135.166v-135.166h12.092v163.413h-4.791l-107.703-134.932v134.932h-12.321v-163.413H4634.319z"/>
	<path id="XMLID_219_" fill="#FFFFFF" stroke="#FFFFFF" stroke-width="20" stroke-miterlimit="10" d="M4971.105,1906.117h93.557
		v11.438h-93.557v64.433h100.859v12.14h-112.953v-163.413h110.215v11.905h-98.121V1906.117z"/>
	<path id="XMLID_217_" fill="#FFFFFF" stroke="#FFFFFF" stroke-width="20" stroke-miterlimit="10" d="M5499.561,1914.522h79.864
		v12.14h-79.864V1914.522z"/>
	<path id="XMLID_215_" fill="#FFFFFF" stroke="#FFFFFF" stroke-width="20" stroke-miterlimit="10" d="M6110.391,1830.714h6.844
		l48.833,149.405l49.517-149.405h13.234l-56.363,163.877h-13.236l-25.326-76.566l-20.08-64.667l-20.08,64.197l-25.557,77.036
		h-13.234l-55.906-163.877h13.009l49.286,149.405L6110.391,1830.714z"/>
	<path id="XMLID_213_" fill="#FFFFFF" stroke="#FFFFFF" stroke-width="20" stroke-miterlimit="10" d="M6431.887,1906.117h93.555
		v11.438h-93.555v64.433h100.857v12.14h-112.952v-163.413h110.215v11.905h-98.12V1906.117z"/>
	<path id="XMLID_210_" fill="#FFFFFF" stroke="#FFFFFF" stroke-width="20" stroke-miterlimit="10" d="M7095.654,1910.552
		c0.912,41.554-25.104,83.575-81.008,83.575c-18.027,0-36.053,0-54.08,0v-163.413c18.027,0,36.053,0,54.08,0
		C7068.727,1830.714,7094.741,1870.399,7095.654,1910.552z M6972.889,1842.619v139.368h41.758c47.463,0,69.371-36.419,68.684-71.436
		c-0.684-34.083-22.588-67.933-68.684-67.933H6972.889z"/>
	<path id="XMLID_207_" fill="#FFFFFF" stroke="#FFFFFF" stroke-width="20" stroke-miterlimit="10" d="M7449.553,1912.654
		c-0.225,42.953-26.923,84.272-80.548,84.272c-53.622,0-80.549-41.554-80.549-84.74c0-43.888,26.696-84.041,80.549-84.041
		C7422.858,1828.146,7449.782,1868.532,7449.553,1912.654z M7300.551,1912.42c0.228,36.884,23.045,72.836,68.454,72.836
		c45.638,0,68.683-35.952,68.683-72.836c0-37.818-22.816-72.601-68.683-72.601C7323.141,1839.819,7300.322,1873.9,7300.551,1912.42z
		"/>
	<path id="XMLID_205_" fill="#FFFFFF" stroke="#FFFFFF" stroke-width="20" stroke-miterlimit="10" d="M7880.799,1994.127v-163.413
		h12.094v163.413H7880.799z"/>
	<path id="XMLID_203_" fill="#FFFFFF" stroke="#FFFFFF" stroke-width="20" stroke-miterlimit="10" d="M8150.273,1842.151h-57.731
		v-11.204h127.786v11.204h-57.731v151.976h-12.323V1842.151z"/>
</g>
<g id="XMLID_197_">
	<path id="XMLID_201_" fill="#FFFFFF" d="M1065.155,0H0v204.51h753.317c14.654-28.568,44.07-48.32,78.384-48.32
		c48.831,0,88.415,39.583,88.415,88.414c0,48.829-39.584,88.414-88.415,88.414c-38.326,0-70.64-24.53-82.905-58.633H0v221.553
		h984.352c5.045-44.04,42.013-78.37,87.401-78.37c48.828,0,88.412,39.584,88.412,88.414c0,48.831-39.584,88.415-88.412,88.415
		c-38.872,0-71.513-25.248-83.364-60.114H0v290.576h724.849c7.707-48.478,49.358-85.638,100.006-85.638
		c56.12,0,101.616,45.494,101.616,101.615c0,56.12-45.496,101.617-101.616,101.617c-44.964,0-82.668-29.401-96.054-69.875H0v145.714
		c105.66-31.529,141.449,67.318,141.449,67.318h925.409c409.019-95.438,439.696-499.346,439.696-499.346
		C1540.641,57.945,1065.155,0,1065.155,0z"/>
	<circle id="XMLID_200_" fill="#FFFFFF" cx="835.081" cy="245.413" r="35.789"/>
	<circle id="XMLID_199_" fill="#FFFFFF" cx="1073.676" cy="512.127" r="35.789"/>
	<circle id="XMLID_198_" fill="#FFFFFF" cx="824.856" cy="845.308" r="35.789"/>
</g>
<g id="XMLID_192_">
	<path id="XMLID_196_" fill="#FFFFFF" d="M1065.155,2209.92H0v-204.511h753.317c14.654,28.568,44.07,48.32,78.384,48.32
		c48.831,0,88.415-39.584,88.415-88.413c0-48.83-39.584-88.415-88.415-88.415c-38.326,0-70.64,24.53-82.905,58.633H0v-221.552
		h984.352c5.045,44.039,42.013,78.369,87.401,78.369c48.828,0,88.412-39.584,88.412-88.414s-39.584-88.414-88.412-88.414
		c-38.872,0-71.513,25.248-83.364,60.113H0v-290.575h724.849c7.707,48.477,49.358,85.638,100.006,85.638
		c56.12,0,101.616-45.495,101.616-101.615s-45.496-101.616-101.616-101.616c-44.964,0-82.668,29.399-96.054,69.875H0V1191.63
		c105.66,31.529,141.449-67.319,141.449-67.319h925.409c409.019,95.439,439.696,499.346,439.696,499.346
		C1540.641,2151.975,1065.155,2209.92,1065.155,2209.92z"/>
	<circle id="XMLID_195_" fill="#FFFFFF" cx="835.081" cy="1964.506" r="35.789"/>
	<circle id="XMLID_194_" fill="#FFFFFF" cx="1073.676" cy="1697.792" r="35.789"/>
	<circle id="XMLID_193_" fill="#FFFFFF" cx="824.856" cy="1364.61" r="35.789"/>
</g>
</svg>
