<svg id="Layer_1" enable-background="new 0 0 512.004 512.004" height="512" viewBox="0 0 512.004 512.004" width="512" xmlns="http://www.w3.org/2000/svg"><path d="m187.999 120c33.084 0 60-26.916 60-60s-26.916-60-60-60-60 26.916-60 60 26.916 60 60 60zm0-80c11.028 0 20 8.972 20 20s-8.972 20-20 20-20-8.972-20-20 8.973-20 20-20zm224.003 443.289c4.812 9.943.651 21.903-9.292 26.714-2.807 1.358-5.775 2.001-8.697 2.001-7.429 0-14.564-4.157-18.017-11.293l-59.861-123.711h-134.136c-33.084 0-60-26.916-60-60v-118c0-33.084 26.916-60 60-60s60 26.916 60 60v78c0 11.046-8.954 20-20 20s-20-8.954-20-20v-78c0-11.028-8.972-20-20-20s-20 8.972-20 20v118c0 11.028 8.972 20 20 20h146.676c7.669 0 14.663 4.385 18.003 11.289zm-87.179-.363c5.011 9.844 1.094 21.886-8.75 26.897-2.907 1.48-6.005 2.181-9.058 2.181-7.285 0-14.308-3.994-17.839-10.931l-22.437-44.073h-84.739c-25.219 0-48.901-6.706-69.36-18.423l-31.817 62.497c-3.531 6.936-10.555 10.931-17.839 10.931-3.053 0-6.15-.701-9.058-2.181-9.843-5.011-13.761-17.053-8.75-26.897l35.394-69.524c-23.889-25.124-38.571-59.081-38.571-96.403v-158c0-11.046 8.954-20 20-20s20 8.954 20 20v158c0 55.14 44.86 100 100 100h97c7.523 0 14.41 4.222 17.823 10.926zm144.15-319.601-40 120c-2.722 8.166-10.365 13.675-18.974 13.675h-111c-11.046 0-20-8.954-20-20s8.954-20 20-20h96.585l35.441-106.325c3.493-10.479 14.817-16.143 25.298-12.649 10.48 3.493 16.143 14.82 12.65 25.299z"/></svg>